# xmcd
#
# Track frame offsets: 
#        150
#        22262
#        31855
#        39578
#        60472
#        71696
#        89957
#        109859
#        133303
#        149175
#        162355
#        191175
#        214013
#        232230
#
# Disc length: 3341 seconds
#
# Revision: 0
# Processed by: cddbd v1.5.2PL0 Copyright (c) Steve Scherf et al.
# Submitted via: ExactAudioCopyFreeDBPlugin 1.0
#
DISCID=e50d0b0e
DTITLE=Michael Pewny - Best of Boogie Woogie and 30 Years
DYEAR=2009
DGENRE=Blues
TTITLE0=Feeling The Blues
TTITLE1=Der Dritte Mann
TTITLE2=Rondo Alla Turca
TTITLE3=Autumn Leaves
TTITLE4=Swinging Legends
TTITLE5=Hamptons Tribute Parade
TTITLE6=Remember Satchmo
TTITLE7=Flip Flop And Fly
TTITLE8=See See Rider
TTITLE9=Susy's Rag
TTITLE10=Papas Blues
TTITLE11=Rollin' and Shufflin
TTITLE12=Downtown In Jazzland
TTITLE13=When The Saints
EXTD=
EXTT0=
EXTT1=
EXTT2=
EXTT3=
EXTT4=
EXTT5=
EXTT6=
EXTT7=
EXTT8=
EXTT9=
EXTT10=
EXTT11=
EXTT12=
EXTT13=
PLAYORDER=
